<?xml version="1.0" standalone="no"?>
<!DOCTYPE svg PUBLIC "-//W3C//DTD SVG 20010904//EN"
 "http://www.w3.org/TR/2001/REC-SVG-20010904/DTD/svg10.dtd">
<svg version="1.0" xmlns="http://www.w3.org/2000/svg"
 width="700.000000pt" height="700.000000pt" viewBox="0 0 700.000000 700.000000"
 preserveAspectRatio="xMidYMid meet">
<metadata>
Created by potrace 1.11, written by Peter Selinger 2001-2013
</metadata>
<g transform="translate(0.000000,700.000000) scale(0.100000,-0.100000)"
fill="#000000" stroke="none">
<path d="M3290 6994 c-19 -2 -87 -9 -150 -15 -647 -61 -1294 -326 -1825 -746
-141 -111 -437 -407 -548 -548 -413 -521 -662 -1120 -744 -1785 -24 -200 -24
-600 0 -800 82 -665 331 -1264 744 -1785 111 -141 407 -437 548 -548 521 -413
1120 -662 1785 -744 200 -24 600 -24 800 0 665 82 1264 331 1785 744 141 111
437 407 548 548 413 521 662 1120 744 1785 24 200 24 600 0 800 -68 554 -253
1063 -549 1516 -49 74 -64 92 -74 82 -6 -7 -642 -818 -1413 -1803 -771 -984
-1423 -1809 -1449 -1833 -147 -136 -365 -157 -548 -55 -24 14 -69 52 -99 86
-61 68 -1128 1723 -1177 1824 -84 177 -49 384 90 522 93 94 191 133 327 133
133 -1 245 -50 331 -145 27 -30 218 -318 424 -640 206 -323 377 -586 380 -586
4 0 1728 2196 2452 3124 l58 73 -83 65 c-494 386 -1103 635 -1737 712 -126 15
-542 28 -620 19z"/>
</g>
</svg>
