<?xml version="1.0" encoding="UTF-8"?>
<svg id="svg80" version="1.1" viewBox="0 0 100 100" width="100" height="100" xmlns="http://www.w3.org/2000/svg">
 <g id="g1159" fill="none" stroke-linejoin="round" stroke-width="4.2632">
  <animateTransform attributeName="transform" dur="5s" from="0 50 50" repeatCount="indefinite" to="360 50 50" type="rotate"/>
  <path id="path871" d="m20.225 87.49c-1.4094-1.1222-2.7702-2.3355-4.0745-3.6397-13.952-13.951-17.491-34.372-10.619-51.606" stroke="#00b0ff" style="paint-order:markers fill stroke"/>
  <path id="path869" d="m5.5315 32.244c2.3363-5.8588 5.8759-11.349 10.619-16.092 9.3473-9.3471 21.598-14.021 33.85-14.021" stroke="#ff75b6" style="paint-order:markers fill stroke"/>
  <path id="path867" d="m50 2.1316c12.251-7e-7 24.502 4.6736 33.85 14.021 4.8398 4.8397 8.4266 10.458 10.761 16.452" stroke="#ee1c60" style="paint-order:markers fill stroke"/>
  <path id="path865" d="m94.61 32.604c6.6811 17.158 3.0943 37.392-10.761 51.246-1.3996 1.3995-2.8642 2.6943-4.3843 3.8843" stroke="#f7b712" style="paint-order:markers fill stroke"/>
  <path id="path844" d="m79.465 87.735c-17.367 13.596-41.96 13.515-59.241-0.24459" stroke="#6342c6" style="paint-order:markers fill stroke"/>
 </g>
 <g id="g898" transform="matrix(.15796 0 0 .15796 -66.625 -68.555)">
  <path id="path827" transform="matrix(6.3307 0 0 6.3307 421.78 434)" d="m29.223 28.492c-0.44552 0.005134-0.8992 0.042426-1.3613 0.11328-2.5632 0.39436-0.39371 12.273 0.3457 16.217 0.69011 3.3026 3.1536 2.3164 5.7168 2.3164 2.6125 0 6.7051-5.2731 6.7051-8.625 0-3.1424-4.7234-10.099-11.406-10.021zm42.086 1.0762c-6.6829-0.11756-11.406 6.8407-11.406 10.029 0 3.3519 4.0911 8.625 6.6543 8.625s5.0779 0.98684 5.7188-2.3652c0.78869-3.9439 2.9577-15.774 0.39453-16.168-0.46213-0.073945-0.9158-0.11326-1.3613-0.12109z" fill="#3f3f3f" fill-rule="evenodd" stroke-width=".15796"/>
  <path id="path831" d="m742.34 668.14c-86.754 0-157.28 100.8-157.28 138.24 18.724 23.405 64.285 56.172 113.9 67.094 4.3689 10.61 22.781 15.915 43.377 15.915s38.384-7.4896 42.753-18.1l16.539-4.681c52.115-14.667 87.066-38.072 97.988-60.229-6.5534-30.27-70.527-138.24-157.28-138.24z" fill="#e3e3e3"/>
  <path id="path833" transform="matrix(6.3307 0 0 6.3307 421.78 434)" d="m50.635 42.949c-12.225 0-21.887 12.028-23.316 16.316 3.2533 5.1759 8.7741 7.7386 13.654 9.3652 0.92326 0.30774 1.8546 0.55933 2.791 0.76953 0.76956 1.506 3.4799 2.6309 6.7246 2.6309 3.4308 0 6.2655-1.2563 6.8379-2.8926 0.8959-0.23054 1.7879-0.49082 2.6738-0.80469 5.1266-1.824 12.522-3.9433 14.297-9.1191-0.93658-3.9928-11.437-16.266-23.662-16.266z" fill="#cfcfcf" stroke-width=".15796"/>
  <path id="path835" transform="matrix(6.3307 0 0 6.3307 421.78 434)" d="m57.254 51.443c-0.27738-0.014153-0.56196-0.003767-0.85156 0.033203-1.7746 0.34514-2.9067 1.9225-2.8574 4.3379 0.098725 4.4365 5.0275 4.0903 6.457 12.52 0 0 5.5207-1.5776 9.1191-3.6973 2.2675-1.4788-5.4709-8.6761-6.9004-10.303-1.3802-1.5096-3.0252-2.7916-4.9668-2.8906zm-13.525 0.19922c-2.1566 0.099746-4.0116 1.3867-5.5645 2.9395-1.6267 1.676-8.9717 7.2469-6.8027 9.2188 4.2393 3.3026 9.6621 4.8301 9.6621 4.8301 1.5774-8.5771 6.753-7.9843 6.8516-12.52 0.098588-2.4646-1.1821-4.0924-3.2031-4.4375-0.3204-0.03697-0.63528-0.045499-0.94336-0.03125z" fill="#3c3c3c" fill-rule="evenodd" stroke-width=".15796"/>
  <path id="path839" d="m762.94 829.48c0.62414 32.767-39.32 38.072-39.008 0-2.4965-33.391 15.291-68.342 17.164-109.53 7.8016 39.32 21.22 76.768 21.845 109.53z" fill="#b9b9b9"/>
  <path id="path843" transform="matrix(6.3307 0 0 6.3307 421.78 434)" d="m57.699 53.104c-0.84567 0.055461-1.5673 0.5537-1.7891 1.3301-0.29568 1.0351 0.39507 2.1691 1.5781 2.4648 1.1337 0.34505 2.3156-0.19725 2.6113-1.2324 0.34497-1.0351-0.39358-2.1198-1.5273-2.4648-0.29574-0.08625-0.59116-0.11614-0.87305-0.097656zm-13.93 0.048828c-0.28189-0.018487-0.5773 0.011406-0.87305 0.097656-1.1338 0.29576-1.8743 1.4297-1.5293 2.4648 0.29576 1.0352 1.4796 1.5775 2.6133 1.2324 1.183-0.34506 1.8719-1.4297 1.5762-2.4648-0.22182-0.77638-0.94145-1.2746-1.7871-1.3301zm6.9629 9.3652c-2.5139 0-4.4844 1.7744-4.4844 3.9434 0 2.2182 1.4282 3.5 4.4844 3.5 3.4999 0 4.4863-1.2818 4.4863-3.5 0-2.1689-2.0217-3.9434-4.4863-3.9434z" fill="#0e0e0e" stroke-width=".15796"/>
  <path id="path851" transform="matrix(6.3307 0 0 6.3307 421.78 434)" d="m39.396 47.113h7.0977-7.0977zm15.576 0h7.0996-7.0996z" fill="none" stroke="#4a4a4a" stroke-linecap="round" stroke-width="1.3802px"/>
  <path id="path845" transform="matrix(1.1517,0,0,1.1517,357.94,366.66)" d="m373.87 352.82c-4.3354 0-7.8574 2.7099-7.8574 6.2324 0 3.2516 3.522 6.2324 7.8574 6.2324s7.8574-2.9808 7.8574-6.2324c0-3.5226-3.522-6.2324-7.8574-6.2324zm-79.121 0.26953c-4.3354 0-7.8574 2.7113-7.8574 5.9629 0 3.5226 3.522 6.2324 7.8574 6.2324s7.8574-2.7099 7.8574-6.2324c-1e-5 -3.2516-3.522-5.9629-7.8574-5.9629zm39.561 50.941c-8.9418 0-15.986 3.2533-15.986 7.0469 0 4.0645 7.0445 7.0449 15.986 7.0449s16.258-2.9804 16.258-7.0449c0-3.7936-7.316-7.0469-16.258-7.0469z" fill="#414141"/>
 </g>
</svg>
